<svg xmlns="http://www.w3.org/2000/svg" width="980" height="470" viewBox="0 0 980 470" font-family="Pretendard','Apple SD Gothic Neo','Malgun Gothic','Noto Sans KR',sans-serif">
  <defs>
    <marker id="ah" viewBox="0 0 10 10" refX="8.5" refY="5" markerWidth="6.5" markerHeight="6.5" orient="auto-start-reverse">
      <path d="M0,0.8 L9,5 L0,9.2 Z" fill="#B7BDC7"/>
    </marker>
    <filter id="sh" x="-20%" y="-40%" width="140%" height="200%">
      <feDropShadow dx="0" dy="2" stdDeviation="3" flood-color="#7C8698" flood-opacity="0.15"/>
    </filter>
    <style>
      .ln  { fill:none; stroke:#B7BDC7; stroke-width:1.8; stroke-linecap:round; stroke-linejoin:round; marker-end:url(#ah); }
      .ln0 { fill:none; stroke:#B7BDC7; stroke-width:1.8; stroke-linecap:round; stroke-linejoin:round; }
      .h   { font-size:14.5px; fill:#39404D; font-weight:700; }
      .t   { font-size:14px; fill:#39404D; text-anchor:middle; font-weight:700; }
      .tl  { font-size:13.5px; fill:#39404D; font-weight:700; }
      .s   { font-size:11.5px; fill:#8A93A0; text-anchor:middle; font-weight:500; }
      .sl  { font-size:11.5px; fill:#8A93A0; font-weight:500; }
      .num { font-size:10px; fill:#8A93A0; text-anchor:middle; font-weight:600; }
      .rst { font-size:10px; fill:#C9695A; text-anchor:middle; font-weight:800; }
      .hld { font-size:10px; fill:#5B8FCB; text-anchor:middle; font-weight:800; }
      .res { font-size:12.5px; fill:#39404D; font-weight:600; }
      .cap { font-size:11.5px; fill:#8A93A0; text-anchor:middle; font-weight:600; }
      .tag { font-size:10px; fill:#FFFFFF; text-anchor:middle; font-weight:700; }
    </style>
  </defs>
  <rect width="100%" height="100%" fill="#FFFFFF"/>
  <text class="h" x="66" y="46">기존 방식 — VAD 가 음성이라 하면 그때마다 침묵 카운터를 0으로</text>
  <rect x="66" y="62" width="18" height="24" rx="6" fill="#EAF2FD" stroke="#A8C5EC" stroke-width="1.3"/>
  <text class="num" x="75.0" y="104">–</text>
  <rect x="87" y="62" width="18" height="24" rx="6" fill="#EAF2FD" stroke="#A8C5EC" stroke-width="1.3"/>
  <text class="num" x="96.0" y="104">–</text>
  <rect x="108" y="62" width="18" height="24" rx="6" fill="#EAF2FD" stroke="#A8C5EC" stroke-width="1.3"/>
  <text class="num" x="117.0" y="104">–</text>
  <rect x="129" y="62" width="18" height="24" rx="6" fill="#EAF2FD" stroke="#A8C5EC" stroke-width="1.3"/>
  <text class="num" x="138.0" y="104">–</text>
  <rect x="150" y="62" width="18" height="24" rx="6" fill="#EAF2FD" stroke="#A8C5EC" stroke-width="1.3"/>
  <text class="num" x="159.0" y="104">–</text>
  <rect x="171" y="62" width="18" height="24" rx="6" fill="#EAF2FD" stroke="#A8C5EC" stroke-width="1.3"/>
  <text class="num" x="180.0" y="104">–</text>
  <rect x="192" y="62" width="18" height="24" rx="6" fill="#EAF2FD" stroke="#A8C5EC" stroke-width="1.3"/>
  <text class="num" x="201.0" y="104">–</text>
  <rect x="213" y="62" width="18" height="24" rx="6" fill="#EAF2FD" stroke="#A8C5EC" stroke-width="1.3"/>
  <text class="num" x="222.0" y="104">–</text>
  <rect x="234" y="62" width="18" height="24" rx="6" fill="#EAF2FD" stroke="#A8C5EC" stroke-width="1.3"/>
  <text class="num" x="243.0" y="104">–</text>
  <rect x="255" y="62" width="18" height="24" rx="6" fill="#EAF2FD" stroke="#A8C5EC" stroke-width="1.3"/>
  <text class="num" x="264.0" y="104">–</text>
  <rect x="276" y="62" width="18" height="24" rx="6" fill="#F1F3F6" stroke="#D7DCE3" stroke-width="1.3"/>
  <text class="num" x="285.0" y="104">1</text>
  <rect x="297" y="62" width="18" height="24" rx="6" fill="#F1F3F6" stroke="#D7DCE3" stroke-width="1.3"/>
  <text class="num" x="306.0" y="104">2</text>
  <rect x="318" y="62" width="18" height="24" rx="6" fill="#F1F3F6" stroke="#D7DCE3" stroke-width="1.3"/>
  <text class="num" x="327.0" y="104">3</text>
  <rect x="339" y="62" width="18" height="24" rx="6" fill="#F1F3F6" stroke="#D7DCE3" stroke-width="1.3"/>
  <text class="num" x="348.0" y="104">4</text>
  <rect x="360" y="62" width="18" height="24" rx="6" fill="#F1F3F6" stroke="#D7DCE3" stroke-width="1.3"/>
  <text class="num" x="369.0" y="104">5</text>
  <rect x="381" y="62" width="18" height="24" rx="6" fill="#F1F3F6" stroke="#D7DCE3" stroke-width="1.3"/>
  <text class="num" x="390.0" y="104">6</text>
  <rect x="402" y="62" width="18" height="24" rx="6" fill="#F1F3F6" stroke="#D7DCE3" stroke-width="1.3"/>
  <text class="num" x="411.0" y="104">7</text>
  <rect x="423" y="62" width="18" height="24" rx="6" fill="#FDECEA" stroke="#F0A99C" stroke-width="1.3"/>
  <text class="rst" x="432.0" y="104">0</text>
  <rect x="444" y="62" width="18" height="24" rx="6" fill="#F1F3F6" stroke="#D7DCE3" stroke-width="1.3"/>
  <text class="num" x="453.0" y="104">1</text>
  <rect x="465" y="62" width="18" height="24" rx="6" fill="#F1F3F6" stroke="#D7DCE3" stroke-width="1.3"/>
  <text class="num" x="474.0" y="104">2</text>
  <rect x="486" y="62" width="18" height="24" rx="6" fill="#F1F3F6" stroke="#D7DCE3" stroke-width="1.3"/>
  <text class="num" x="495.0" y="104">3</text>
  <rect x="507" y="62" width="18" height="24" rx="6" fill="#F1F3F6" stroke="#D7DCE3" stroke-width="1.3"/>
  <text class="num" x="516.0" y="104">4</text>
  <rect x="528" y="62" width="18" height="24" rx="6" fill="#F1F3F6" stroke="#D7DCE3" stroke-width="1.3"/>
  <text class="num" x="537.0" y="104">5</text>
  <rect x="549" y="62" width="18" height="24" rx="6" fill="#F1F3F6" stroke="#D7DCE3" stroke-width="1.3"/>
  <text class="num" x="558.0" y="104">6</text>
  <rect x="570" y="62" width="18" height="24" rx="6" fill="#FDECEA" stroke="#F0A99C" stroke-width="1.3"/>
  <text class="rst" x="579.0" y="104">0</text>
  <rect x="591" y="62" width="18" height="24" rx="6" fill="#FDECEA" stroke="#F0A99C" stroke-width="1.3"/>
  <text class="rst" x="600.0" y="104">0</text>
  <rect x="612" y="62" width="18" height="24" rx="6" fill="#F1F3F6" stroke="#D7DCE3" stroke-width="1.3"/>
  <text class="num" x="621.0" y="104">1</text>
  <rect x="633" y="62" width="18" height="24" rx="6" fill="#F1F3F6" stroke="#D7DCE3" stroke-width="1.3"/>
  <text class="num" x="642.0" y="104">2</text>
  <rect x="654" y="62" width="18" height="24" rx="6" fill="#F1F3F6" stroke="#D7DCE3" stroke-width="1.3"/>
  <text class="num" x="663.0" y="104">3</text>
  <rect x="675" y="62" width="18" height="24" rx="6" fill="#F1F3F6" stroke="#D7DCE3" stroke-width="1.3"/>
  <text class="num" x="684.0" y="104">4</text>
  <rect x="696" y="62" width="18" height="24" rx="6" fill="#F1F3F6" stroke="#D7DCE3" stroke-width="1.3"/>
  <text class="num" x="705.0" y="104">5</text>
  <rect x="717" y="62" width="18" height="24" rx="6" fill="#F1F3F6" stroke="#D7DCE3" stroke-width="1.3"/>
  <text class="num" x="726.0" y="104">6</text>
  <rect x="738" y="62" width="18" height="24" rx="6" fill="#F1F3F6" stroke="#D7DCE3" stroke-width="1.3"/>
  <text class="num" x="747.0" y="104">7</text>
  <rect x="759" y="62" width="18" height="24" rx="6" fill="#F1F3F6" stroke="#D7DCE3" stroke-width="1.3"/>
  <text class="num" x="768.0" y="104">8</text>
  <text class="res" x="66" y="132">오탐이 낄 때마다 0으로 돌아가 <tspan font-weight="800">66프레임(2초)에 끝내 도달하지 못한다.</tspan> 어르신이 말을 멈춰도 녹음이 계속된다.</text>
  <text class="h" x="66" y="196">적용 방식 — 연속 3프레임 이상 음성일 때만 리셋 <tspan font-weight="600" fill="#8A93A0">(speech_run ≥ 3)</tspan></text>
  <rect x="66" y="212" width="18" height="24" rx="6" fill="#EAF2FD" stroke="#A8C5EC" stroke-width="1.3"/>
  <text class="num" x="75.0" y="254">–</text>
  <rect x="87" y="212" width="18" height="24" rx="6" fill="#EAF2FD" stroke="#A8C5EC" stroke-width="1.3"/>
  <text class="num" x="96.0" y="254">–</text>
  <rect x="108" y="212" width="18" height="24" rx="6" fill="#EAF2FD" stroke="#A8C5EC" stroke-width="1.3"/>
  <text class="num" x="117.0" y="254">–</text>
  <rect x="129" y="212" width="18" height="24" rx="6" fill="#EAF2FD" stroke="#A8C5EC" stroke-width="1.3"/>
  <text class="num" x="138.0" y="254">–</text>
  <rect x="150" y="212" width="18" height="24" rx="6" fill="#EAF2FD" stroke="#A8C5EC" stroke-width="1.3"/>
  <text class="num" x="159.0" y="254">–</text>
  <rect x="171" y="212" width="18" height="24" rx="6" fill="#EAF2FD" stroke="#A8C5EC" stroke-width="1.3"/>
  <text class="num" x="180.0" y="254">–</text>
  <rect x="192" y="212" width="18" height="24" rx="6" fill="#EAF2FD" stroke="#A8C5EC" stroke-width="1.3"/>
  <text class="num" x="201.0" y="254">–</text>
  <rect x="213" y="212" width="18" height="24" rx="6" fill="#EAF2FD" stroke="#A8C5EC" stroke-width="1.3"/>
  <text class="num" x="222.0" y="254">–</text>
  <rect x="234" y="212" width="18" height="24" rx="6" fill="#EAF2FD" stroke="#A8C5EC" stroke-width="1.3"/>
  <text class="num" x="243.0" y="254">–</text>
  <rect x="255" y="212" width="18" height="24" rx="6" fill="#EAF2FD" stroke="#A8C5EC" stroke-width="1.3"/>
  <text class="num" x="264.0" y="254">–</text>
  <rect x="276" y="212" width="18" height="24" rx="6" fill="#F1F3F6" stroke="#D7DCE3" stroke-width="1.3"/>
  <text class="num" x="285.0" y="254">1</text>
  <rect x="297" y="212" width="18" height="24" rx="6" fill="#F1F3F6" stroke="#D7DCE3" stroke-width="1.3"/>
  <text class="num" x="306.0" y="254">2</text>
  <rect x="318" y="212" width="18" height="24" rx="6" fill="#F1F3F6" stroke="#D7DCE3" stroke-width="1.3"/>
  <text class="num" x="327.0" y="254">3</text>
  <rect x="339" y="212" width="18" height="24" rx="6" fill="#F1F3F6" stroke="#D7DCE3" stroke-width="1.3"/>
  <text class="num" x="348.0" y="254">4</text>
  <rect x="360" y="212" width="18" height="24" rx="6" fill="#F1F3F6" stroke="#D7DCE3" stroke-width="1.3"/>
  <text class="num" x="369.0" y="254">5</text>
  <rect x="381" y="212" width="18" height="24" rx="6" fill="#F1F3F6" stroke="#D7DCE3" stroke-width="1.3"/>
  <text class="num" x="390.0" y="254">6</text>
  <rect x="402" y="212" width="18" height="24" rx="6" fill="#F1F3F6" stroke="#D7DCE3" stroke-width="1.3"/>
  <text class="num" x="411.0" y="254">7</text>
  <rect x="423" y="212" width="18" height="24" rx="6" fill="#FDECEA" stroke="#F0A99C" stroke-width="1.3"/>
  <text class="hld" x="432.0" y="254">7</text>
  <rect x="444" y="212" width="18" height="24" rx="6" fill="#F1F3F6" stroke="#D7DCE3" stroke-width="1.3"/>
  <text class="num" x="453.0" y="254">8</text>
  <rect x="465" y="212" width="18" height="24" rx="6" fill="#F1F3F6" stroke="#D7DCE3" stroke-width="1.3"/>
  <text class="num" x="474.0" y="254">9</text>
  <rect x="486" y="212" width="18" height="24" rx="6" fill="#F1F3F6" stroke="#D7DCE3" stroke-width="1.3"/>
  <text class="num" x="495.0" y="254">10</text>
  <rect x="507" y="212" width="18" height="24" rx="6" fill="#F1F3F6" stroke="#D7DCE3" stroke-width="1.3"/>
  <text class="num" x="516.0" y="254">11</text>
  <rect x="528" y="212" width="18" height="24" rx="6" fill="#F1F3F6" stroke="#D7DCE3" stroke-width="1.3"/>
  <text class="num" x="537.0" y="254">12</text>
  <rect x="549" y="212" width="18" height="24" rx="6" fill="#F1F3F6" stroke="#D7DCE3" stroke-width="1.3"/>
  <text class="num" x="558.0" y="254">13</text>
  <rect x="570" y="212" width="18" height="24" rx="6" fill="#FDECEA" stroke="#F0A99C" stroke-width="1.3"/>
  <text class="hld" x="579.0" y="254">13</text>
  <rect x="591" y="212" width="18" height="24" rx="6" fill="#FDECEA" stroke="#F0A99C" stroke-width="1.3"/>
  <text class="hld" x="600.0" y="254">13</text>
  <rect x="612" y="212" width="18" height="24" rx="6" fill="#F1F3F6" stroke="#D7DCE3" stroke-width="1.3"/>
  <text class="num" x="621.0" y="254">14</text>
  <rect x="633" y="212" width="18" height="24" rx="6" fill="#F1F3F6" stroke="#D7DCE3" stroke-width="1.3"/>
  <text class="num" x="642.0" y="254">15</text>
  <rect x="654" y="212" width="18" height="24" rx="6" fill="#F1F3F6" stroke="#D7DCE3" stroke-width="1.3"/>
  <text class="num" x="663.0" y="254">16</text>
  <rect x="675" y="212" width="18" height="24" rx="6" fill="#F1F3F6" stroke="#D7DCE3" stroke-width="1.3"/>
  <text class="num" x="684.0" y="254">17</text>
  <rect x="696" y="212" width="18" height="24" rx="6" fill="#F1F3F6" stroke="#D7DCE3" stroke-width="1.3"/>
  <text class="num" x="705.0" y="254">18</text>
  <rect x="717" y="212" width="18" height="24" rx="6" fill="#F1F3F6" stroke="#D7DCE3" stroke-width="1.3"/>
  <text class="num" x="726.0" y="254">19</text>
  <rect x="738" y="212" width="18" height="24" rx="6" fill="#F1F3F6" stroke="#D7DCE3" stroke-width="1.3"/>
  <text class="num" x="747.0" y="254">20</text>
  <rect x="759" y="212" width="18" height="24" rx="6" fill="#F1F3F6" stroke="#D7DCE3" stroke-width="1.3"/>
  <text class="num" x="768.0" y="254">21</text>
  <text class="res" x="66" y="282">1~2프레임짜리 오탐은 카운터를 <tspan font-weight="800">되돌리지도 늘리지도 않고 그대로 둔다.</tspan> 침묵이 계속 쌓여 2초에 도달하면 발화 종료.</text>
  <text class="h" x="66" y="346">진짜 말이 이어지면 — 연속 3프레임에서 리셋된다</text>
  <rect x="66" y="362" width="18" height="24" rx="6" fill="#F1F3F6" stroke="#D7DCE3" stroke-width="1.3"/>
  <text class="num" x="75.0" y="404">1</text>
  <rect x="87" y="362" width="18" height="24" rx="6" fill="#F1F3F6" stroke="#D7DCE3" stroke-width="1.3"/>
  <text class="num" x="96.0" y="404">2</text>
  <rect x="108" y="362" width="18" height="24" rx="6" fill="#F1F3F6" stroke="#D7DCE3" stroke-width="1.3"/>
  <text class="num" x="117.0" y="404">3</text>
  <rect x="129" y="362" width="18" height="24" rx="6" fill="#F1F3F6" stroke="#D7DCE3" stroke-width="1.3"/>
  <text class="num" x="138.0" y="404">4</text>
  <rect x="150" y="362" width="18" height="24" rx="6" fill="#EAF2FD" stroke="#A8C5EC" stroke-width="1.3"/>
  <text class="num" x="159.0" y="404">–</text>
  <rect x="171" y="362" width="18" height="24" rx="6" fill="#EAF2FD" stroke="#A8C5EC" stroke-width="1.3"/>
  <text class="num" x="180.0" y="404">–</text>
  <rect x="192" y="362" width="18" height="24" rx="6" fill="#EAF2FD" stroke="#A8C5EC" stroke-width="1.3"/>
  <text class="rst" x="201.0" y="404">0</text>
  <rect x="213" y="362" width="18" height="24" rx="6" fill="#EAF2FD" stroke="#A8C5EC" stroke-width="1.3"/>
  <text class="rst" x="222.0" y="404">0</text>
  <rect x="234" y="362" width="18" height="24" rx="6" fill="#F1F3F6" stroke="#D7DCE3" stroke-width="1.3"/>
  <text class="num" x="243.0" y="404">1</text>
  <rect x="255" y="362" width="18" height="24" rx="6" fill="#F1F3F6" stroke="#D7DCE3" stroke-width="1.3"/>
  <text class="num" x="264.0" y="404">2</text>
  <rect x="276" y="362" width="18" height="24" rx="6" fill="#F1F3F6" stroke="#D7DCE3" stroke-width="1.3"/>
  <text class="num" x="285.0" y="404">3</text>
  <text class="res" x="313" y="382">← 세 번째 음성 프레임에서 0으로 리셋. 느린 말 사이의 쉼을 문장 끝으로 오해하지 않는다.</text>
  <text class="sl" x="66" y="440">칸 하나 = 30ms 프레임 · 칸 아래 숫자 = 침묵 카운터(sil) · 종료 조건 = 연속 침묵 66프레임(2초) · 음성 판정 = webrtcvad AND RMS &gt; 600</text>
  <rect x="640" y="30" width="14" height="14" rx="4" fill="#EAF2FD" stroke="#A8C5EC" stroke-width="1.3"/>
  <text class="sl" x="660" y="42">음성 프레임</text>
  <rect x="755" y="30" width="14" height="14" rx="4" fill="#F1F3F6" stroke="#D7DCE3" stroke-width="1.3"/>
  <text class="sl" x="775" y="42">침묵 프레임</text>
  <rect x="870" y="30" width="14" height="14" rx="4" fill="#FDECEA" stroke="#F0A99C" stroke-width="1.3"/>
  <text class="sl" x="890" y="42">VAD 오탐</text>
</svg>
