<svg xmlns="http://www.w3.org/2000/svg" width="1582" height="470" viewBox="0 0 1582 470" font-family="'Pretendard','Apple SD Gothic Neo','Malgun Gothic','Noto Sans KR',sans-serif">
  <defs>
    <marker id="ah" viewBox="0 0 10 10" refX="8.5" refY="5" markerWidth="6.5" markerHeight="6.5" orient="auto-start-reverse">
      <path d="M0,0.8 L9,5 L0,9.2 Z" fill="#B7BDC7"/>
    </marker>
    <filter id="sh" x="-20%" y="-40%" width="140%" height="200%">
      <feDropShadow dx="0" dy="2" stdDeviation="3" flood-color="#7C8698" flood-opacity="0.16"/>
    </filter>
    <style>
      .ln  { fill:none; stroke:#B7BDC7; stroke-width:2; stroke-linecap:round; stroke-linejoin:round; marker-end:url(#ah); }
      .ln0 { fill:none; stroke:#B7BDC7; stroke-width:2; stroke-linecap:round; stroke-linejoin:round; }
      .t   { font-size:16px;   fill:#39404D; text-anchor:middle; font-weight:700; }
      .s   { font-size:11.5px; fill:#8A93A0; text-anchor:middle; font-weight:500; }
      .lblF { font-size:12px; fill:#8A93A0; text-anchor:middle; font-weight:700; paint-order:stroke; stroke:#FFF; stroke-width:4px; stroke-linejoin:round; }
      .lblT { font-size:12px; fill:#C9695A; text-anchor:middle; font-weight:700; paint-order:stroke; stroke:#FFF; stroke-width:4px; stroke-linejoin:round; }
      .lblN { font-size:12px; fill:#7E8896; text-anchor:middle; font-weight:700; paint-order:stroke; stroke:#FFF; stroke-width:4px; stroke-linejoin:round; }
    </style>
  </defs>
  <rect width="100%" height="100%" fill="#FFFFFF"/>
  <path class="ln" d="M190,170 L222,170"/>
  <path class="ln" d="M412,170 L444,170"/>
  <path class="ln" d="M634,170 L666,170"/>
  <path class="ln" d="M836,170 L868,170"/>
  <path class="ln" d="M1098,170 L1130,170"/>
  <path class="ln" d="M1320,170 L1352,170"/>
  <path class="ln0" d="M539,137 L539,87" stroke-dasharray="6 5"/>
  <path class="ln" d="M983,226 L983,299"/>
  <path class="ln" d="M1108,330 L1211.0,330.0 Q1225,330 1225.0,316.0 L1225,203"/>
  <path class="ln" d="M1447,203 L1447.0,406.0 Q1447,420 1433.0,420.0 L553.0,420.0 Q539,420 539.0,406.0 L539,203"/>
  <path class="ln" d="M490,203 L490.0,276.0 Q490,290 476.0,290.0 L129.0,290.0 Q115,290 115.0,276.0 L115,194"/>
  <rect x="40" y="146" width="150" height="48" rx="24" fill="#FDECEA" stroke="#F0A99C" stroke-width="1.8" filter="url(#sh)"/>
  <text class="t" x="115" y="176">대기</text>
  <rect x="222" y="137" width="190" height="66" rx="16" fill="#EAF2FD" stroke="#A8C5EC" stroke-width="1.8" filter="url(#sh)"/>
  <text class="t" x="317" y="166">① 웨이크워드 감지</text>
  <text class="s" x="317" y="186">“모리야” · score ≥ 0.9</text>
  <rect x="444" y="137" width="190" height="66" rx="16" fill="#EAF2FD" stroke="#A8C5EC" stroke-width="1.8" filter="url(#sh)"/>
  <text class="t" x="539" y="166">② 라이브 녹음 + VAD</text>
  <text class="s" x="539" y="186">말끝 침묵 2초 → 발화 종료</text>
  <rect x="424" y="29" width="230" height="58" rx="16" fill="#EAF6EF" stroke="#A2D2BA" stroke-width="1.8" stroke-dasharray="6 5"/>
  <text class="t" x="539" y="54">②-1 감정 샘플링 (병행)</text>
  <text class="s" x="539" y="74">0.7초 간격 · 즉시 분류 후 폐기</text>
  <rect x="666" y="137" width="170" height="66" rx="16" fill="#EAF6EF" stroke="#A2D2BA" stroke-width="1.8" filter="url(#sh)"/>
  <text class="t" x="751" y="166">③ STT</text>
  <text class="s" x="751" y="186">Whisper-base · 환청 필터</text>
  <path d="M965.0,122.8 Q983,114 1001.0,122.8 L1080.0,161.2 Q1098,170 1080.0,178.8 L1001.0,217.2 Q983,226 965.0,217.2 L886.0,178.8 Q868,170 886.0,161.2 Z" fill="#FDF7E7" stroke="#E8CE86" stroke-width="1.8" filter="url(#sh)"/>
  <text class="t" x="983" y="166">④ 위험 신호인가?</text>
  <text class="s" x="983" y="186">규칙 → LLM 2단</text>
  <rect x="1130" y="137" width="190" height="66" rx="16" fill="#F0EAFB" stroke="#BFAEE6" stroke-width="1.8" filter="url(#sh)"/>
  <text class="t" x="1225" y="166">⑤ RAG + LLM</text>
  <text class="s" x="1225" y="186">기억 top-3 · 답변·표정</text>
  <rect x="1352" y="137" width="190" height="66" rx="16" fill="#E7F4EE" stroke="#93C9AC" stroke-width="1.8" filter="url(#sh)"/>
  <text class="t" x="1447" y="166">⑥ TTS 재생 + 표정</text>
  <text class="s" x="1447" y="186">가족 목소리 · LCD 표정</text>
  <rect x="858" y="299" width="250" height="62" rx="16" fill="#FCE7E4" stroke="#EE9285" stroke-width="1.8" filter="url(#sh)"/>
  <text class="t" x="983" y="326">④-1 정해진 문장으로 응답</text>
  <text class="s" x="983" y="346">LLM 우회 · 가족에게 즉시 알림</text>
  <text class="lblF" x="1114" y="151">False</text>
  <text class="lblT" x="1012" y="262">True</text>
  <text class="lblN" x="700" y="412">다음 턴</text>
  <text class="lblT" x="300" y="282">15초 무발화 · 대화 종료</text>
</svg>
